<?xml version="1.0" encoding="UTF-8"?>
<svg xmlns="http://www.w3.org/2000/svg" version="1.1" viewBox="0 0 387.17 385.2">
  <!-- Generator: Adobe Illustrator 30.5.1, SVG Export Plug-In . SVG Version: 2.1.4 Build 3)  -->
  <defs>
    <style>
      .st0 {
        stroke-miterlimit: 4;
        stroke-width: 32px;
      }

      .st0, .st1, .st2 {
        fill: none;
        stroke: #000;
        stroke-linecap: round;
      }

      .st1 {
        stroke-miterlimit: 4;
        stroke-width: 32px;
      }

      .st3 {
        fill: #fff;
      }

      .st2 {
        stroke-width: 32px;
      }
    </style>
  </defs>
  <g id="Layer_2">
    <ellipse class="st3" cx="193.58" cy="192.6" rx="193.58" ry="192.6"/>
  </g>
  <g id="Layer_1">
    <path d="M62.53,325.15c-8.81.03-15.99-7.07-16.05-15.88l-1.71-233c-.06-8.84,7.05-16.05,15.88-16.12h.06c8.81-.03,15.99,7.07,16.05,15.88l1.71,233c.06,8.84-7.05,16.05-15.88,16.12h-.06Z"/>
    <line class="st0" x1="211.16" y1="367.65" x2="212.08" y2="17.65"/>
    <line class="st1" x1="312.12" y1="178.71" x2="62.12" y2="179.59"/>
    <line class="st2" x1="343.73" y1="285.56" x2="61.76" y2="75.79"/>
    <path class="st3" d="M64.52,325.01c-.68.08-1.07.11-1.43.12l-.92-258.52c0-1.9,1.04-3.62,2.74-4.48,1.7-.86,3.7-.69,6.23.44l157.53,116.48,99.38-.36c-.02.74-.03.81-.09,1.37-.09.82-.14,1.07-.26,1.64l-96,.34,118.14,86.5c2.24,1.64,4.01,2.96,6.08,5.65,1.55,2.01,2.21,3.2,3.12,6.73l-132.36-98.87-161.11.57.5,142.1c-.39.09-.83.18-1.57.28ZM65.57,179.63l157.08-.56L68.36,64.99c-.62-.46-1.4-.53-2.09-.18-.69.35-1.1,1.02-1.1,1.79l.4,113.03Z"/>
    <path class="st3" d="M226.43,373.17s.44-1.26,0,0c-.33.93-1.42,2.75-1.81,3.13l1-367.17c.41.58.6.85,1.12,2.02,0,0,.43.84.72,1.85.81,2.88,1.07,4.76,1.16,7.54l-1,344.18c-.01.86-.34,5.85-1.19,8.45Z"/>
  </g>
</svg>